
<svg xmlns="http://www.w3.org/2000/svg" width="512" height="512" viewBox="0 0 512 512" data-svgdocument="" id="_8gNwAzlVR_AdJZYYCAbw7" class="fl-svgdocument" style="overflow: visible;" x="0" y="0" xmlns:xlink="http://www.w3.org/1999/xlink">
<defs id="_p9WucsL8EOdJO-7h8Njul" transform="matrix(1.078791856765747, 0, 0, 1.078791856765747, -22.68246078491211, -12.879642486572266)">
</defs>
<path text="openlists" text-anchor="middle" font-size="100" letter-spacing="0" side="left" offset="0.5" dx="0" dy="0" space="preserve" href="" font-family="Bungee" font-scale="contain" transform="matrix(0.696348, 0, 0, 0.696348, 255.373, 362.948)" x="0" y="0" fill="#042440" data-fl-textpath="" id="_bnPxAsfJl7fo1krj2xu0z" d="M-235.70000000000002-53L-235.70000000000002-18.9Q-235.70000000000002-14.3 -237.05-10.55Q-238.40000000000003-6.8 -241.85000000000002-4.15Q-245.3-1.5 -251.35000000000002 0Q-257.40000000000003 1.5 -266.70000000000005 1.5L-266.70000000000005 1.5Q-276 1.5 -282.1 0Q-288.20000000000005-1.5 -291.65000000000003-4.15Q-295.1-6.8 -296.45000000000005-10.55Q-297.8-14.3 -297.8-18.9L-297.8-18.9L-297.8-53Q-297.8-57.6 -296.45000000000005-61.35Q-295.1-65.1 -291.65000000000003-67.8Q-288.20000000000005-70.5 -282.1-72Q-276-73.5 -266.70000000000005-73.5L-266.70000000000005-73.5Q-257.40000000000003-73.5 -251.35000000000002-72Q-245.3-70.5 -241.85000000000002-67.8Q-238.40000000000003-65.1 -237.05-61.35Q-235.70000000000002-57.6 -235.70000000000002-53L-235.70000000000002-53ZM-275.1-49.4L-275.1-22.5Q-275.1-20.5 -273.6-19.15Q-272.1-17.8 -266.70000000000005-17.8L-266.70000000000005-17.8Q-261.3-17.8 -259.8-19.15Q-258.3-20.5 -258.3-22.5L-258.3-22.5L-258.3-49.4Q-258.3-51.3 -259.8-52.65Q-261.3-54 -266.70000000000005-54L-266.70000000000005-54Q-272.1-54 -273.6-52.65Q-275.1-51.3 -275.1-49.4L-275.1-49.4ZM-203.90000000000003 0L-203.90000000000003 0L-219.40000000000003 0Q-221.30000000000004 0 -222.15000000000003-0.85Q-223.00000000000003-1.7 -223.00000000000003-3.6L-223.00000000000003-3.6L-223.00000000000003-68.4Q-223.00000000000003-70.3 -222.15000000000003-71.15Q-221.30000000000004-72 -219.40000000000003-72L-219.40000000000003-72L-188.80000000000004-72Q-175.20000000000005-72 -170.20000000000005-66.6Q-165.20000000000005-61.2 -165.20000000000005-52.5L-165.20000000000005-52.5L-165.20000000000005-39.7Q-165.20000000000005-31 -170.20000000000005-25.6Q-175.20000000000005-20.2 -188.80000000000004-20.2L-188.80000000000004-20.2L-200.30000000000004-20.2L-200.30000000000004-3.6Q-200.30000000000004-1.7 -201.15000000000003-0.85Q-202.00000000000003 0 -203.90000000000003 0ZM-191.50000000000003-53.3L-200.50000000000003-53.3L-200.50000000000003-38.2L-191.50000000000003-38.2Q-188.60000000000002-38.2 -187.70000000000005-39.7Q-186.80000000000004-41.2 -186.80000000000004-43.1L-186.80000000000004-43.1L-186.80000000000004-48.4Q-186.80000000000004-50.3 -187.70000000000005-51.8Q-188.60000000000002-53.3 -191.50000000000003-53.3L-191.50000000000003-53.3ZM-104.80000000000004 0L-104.80000000000004 0L-151.20000000000005 0Q-153.10000000000005 0 -153.95000000000005-0.85Q-154.80000000000004-1.7 -154.80000000000004-3.6L-154.80000000000004-3.6L-154.80000000000004-68.4Q-154.80000000000004-70.3 -153.95000000000005-71.15Q-153.10000000000005-72 -151.20000000000005-72L-151.20000000000005-72L-104.80000000000004-72Q-102.90000000000005-72 -102.05000000000004-71.15Q-101.20000000000005-70.3 -101.20000000000005-68.4L-101.20000000000005-68.4L-101.20000000000005-56.7Q-101.20000000000005-54.8 -102.05000000000004-53.95Q-102.90000000000005-53.1 -104.80000000000004-53.1L-104.80000000000004-53.1L-132.40000000000003-53.1L-132.40000000000003-45.4L-112.90000000000005-45.4Q-111.00000000000004-45.4 -110.15000000000005-44.55Q-109.30000000000004-43.7 -109.30000000000004-41.8L-109.30000000000004-41.8L-109.30000000000004-31.1Q-109.30000000000004-29.2 -110.15000000000005-28.35Q-111.00000000000004-27.5 -112.90000000000005-27.5L-112.90000000000005-27.5L-132.40000000000003-27.5L-132.40000000000003-18.9L-104.80000000000004-18.9Q-102.90000000000005-18.9 -102.05000000000004-18.05Q-101.20000000000005-17.2 -101.20000000000005-15.3L-101.20000000000005-15.3L-101.20000000000005-3.6Q-101.20000000000005-1.7 -102.05000000000004-0.85Q-102.90000000000005 0 -104.80000000000004 0ZM-70.80000000000004 0L-70.80000000000004 0L-85.80000000000004 0Q-87.70000000000005 0 -88.55000000000004-0.85Q-89.40000000000003-1.7 -89.40000000000003-3.6L-89.40000000000003-3.6L-89.40000000000003-68.4Q-89.40000000000003-70.3 -88.55000000000004-71.15Q-87.70000000000005-72 -85.80000000000004-72L-85.80000000000004-72L-75.40000000000003-72Q-73.50000000000004-72 -72.15000000000003-71.4Q-70.80000000000004-70.8 -69.50000000000004-69.3L-69.50000000000004-69.3L-50.10000000000004-47.1L-50.10000000000004-68.4Q-50.10000000000004-70.3 -49.25000000000004-71.15Q-48.40000000000004-72 -46.50000000000004-72L-46.50000000000004-72L-31.500000000000043-72Q-29.600000000000037-72 -28.750000000000043-71.15Q-27.900000000000034-70.3 -27.900000000000034-68.4L-27.900000000000034-68.4L-27.900000000000034-3.6Q-27.900000000000034-1.7 -28.750000000000043-0.85Q-29.600000000000037 0 -31.500000000000043 0L-31.500000000000043 0L-46.50000000000004 0Q-48.40000000000004 0 -49.25000000000004-0.85Q-50.10000000000004-1.7 -50.10000000000004-3.6L-50.10000000000004-3.6L-50.10000000000004-15.9L-67.20000000000005-36.6L-67.20000000000005-3.6Q-67.20000000000005-1.7 -68.05000000000004-0.85Q-68.90000000000003 0 -70.80000000000004 0ZM 40.399999999999956 0L 40.399999999999956 0L-10.500000000000043 0Q-12.400000000000043 0 -13.250000000000043-0.85Q-14.100000000000042-1.7 -14.100000000000042-3.6L-14.100000000000042-3.6L-14.100000000000042-68.4Q-14.100000000000042-70.3 -13.250000000000043-71.15Q-12.400000000000043-72 -10.500000000000043-72L-10.500000000000043-72L 4.999999999999957-72Q 6.899999999999956-72  7.749999999999957-71.15Q 8.599999999999959-70.3  8.599999999999959-68.4L 8.599999999999959-68.4L 8.599999999999959-18.9L 22.299999999999955-18.9L 22.299999999999955-35.1Q 22.299999999999955-37  23.149999999999956-37.85Q 23.999999999999957-38.7  25.899999999999956-38.7L 25.899999999999956-38.7L 40.399999999999956-38.7Q 42.299999999999955-38.7  43.14999999999996-37.85Q 43.99999999999996-37  43.99999999999996-35.1L 43.99999999999996-35.1L 43.99999999999996-3.6Q 43.99999999999996-1.7  43.14999999999996-0.85Q 42.299999999999955 0  40.399999999999956 0ZM 99.99999999999996 0L 57.399999999999956 0Q 55.49999999999996 0  54.649999999999956-0.85Q 53.799999999999955-1.7  53.799999999999955-3.6L 53.799999999999955-3.6L 53.799999999999955-15.5Q 53.799999999999955-17.4  54.649999999999956-18.25Q 55.49999999999996-19.1  57.399999999999956-19.1L 57.399999999999956-19.1L 67.29999999999995-19.1L 67.29999999999995-52.7L 57.399999999999956-52.7Q 55.49999999999996-52.7  54.649999999999956-53.55Q 53.799999999999955-54.4  53.799999999999955-56.3L 53.799999999999955-56.3L 53.799999999999955-68.4Q 53.799999999999955-70.3  54.649999999999956-71.15Q 55.49999999999996-72  57.399999999999956-72L 57.399999999999956-72L 99.99999999999996-72Q 101.89999999999995-72  102.74999999999996-71.15Q 103.59999999999997-70.3  103.59999999999997-68.4L 103.59999999999997-68.4L 103.59999999999997-56.3Q 103.59999999999997-54.4  102.74999999999996-53.55Q 101.89999999999995-52.7  99.99999999999996-52.7L 99.99999999999996-52.7L 90.29999999999995-52.7L 90.29999999999995-19.1L 99.99999999999996-19.1Q 101.89999999999995-19.1  102.74999999999996-18.25Q 103.59999999999997-17.4  103.59999999999997-15.5L 103.59999999999997-15.5L 103.59999999999997-3.6Q 103.59999999999997-1.7  102.74999999999996-0.85Q 101.89999999999995 0  99.99999999999996 0L 99.99999999999996 0ZM 149.29999999999995 0L 149.29999999999995 0L 117.69999999999995 0Q 115.79999999999994 0  114.94999999999995-0.85Q 114.09999999999994-1.7  114.09999999999994-3.6L 114.09999999999994-3.6L 114.09999999999994-15.3Q 114.09999999999994-17.2  114.94999999999995-18.05Q 115.79999999999994-18.9  117.69999999999995-18.9L 117.69999999999995-18.9L 144.59999999999994-18.9Q 145.89999999999995-18.9  146.54999999999995-19.75Q 147.19999999999993-20.6  147.19999999999993-21.8L 147.19999999999993-21.8Q 147.19999999999993-23.5  146.54999999999995-24.3Q 145.89999999999995-25.1  144.59999999999994-25.2L 144.59999999999994-25.2L 129.59999999999994-27.3Q 122.59999999999994-28.3  118.34999999999994-31.9Q 114.09999999999994-35.5  114.09999999999994-43.9L 114.09999999999994-43.9L 114.09999999999994-54.4Q 114.09999999999994-62.9  119.59999999999994-67.45Q 125.09999999999994-72  134.79999999999995-72L 134.79999999999995-72L 162.79999999999995-72Q 164.69999999999993-72  165.54999999999995-71.15Q 166.39999999999995-70.3  166.39999999999995-68.4L 166.39999999999995-68.4L 166.39999999999995-56.5Q 166.39999999999995-54.6  165.54999999999995-53.75Q 164.69999999999993-52.9  162.79999999999995-52.9L 162.79999999999995-52.9L 139.49999999999994-52.9Q 138.19999999999993-52.9  137.49999999999994-52.05Q 136.79999999999995-51.2  136.79999999999995-49.9L 136.79999999999995-49.9Q 136.79999999999995-48.6  137.49999999999994-47.7Q 138.19999999999993-46.8  139.49999999999994-46.7L 139.49999999999994-46.7L 154.39999999999995-44.7Q 161.39999999999995-43.7  165.69999999999993-40.1Q 169.99999999999994-36.5  169.99999999999994-28.1L 169.99999999999994-28.1L 169.99999999999994-17.6Q 169.99999999999994-9.1  164.44999999999993-4.55Q 158.89999999999995 0  149.29999999999995 0ZM 213.89999999999995 0L 213.89999999999995 0L 197.69999999999993 0Q 195.79999999999995 0  194.94999999999993-0.85Q 194.09999999999994-1.7  194.09999999999994-3.6L 194.09999999999994-3.6L 194.09999999999994-52.7L 179.39999999999995-52.7Q 177.49999999999994-52.7  176.64999999999995-53.55Q 175.79999999999995-54.4  175.79999999999995-56.3L 175.79999999999995-56.3L 175.79999999999995-68.4Q 175.79999999999995-70.3  176.64999999999995-71.15Q 177.49999999999994-72  179.39999999999995-72L 179.39999999999995-72L 232.19999999999993-72Q 234.09999999999994-72  234.94999999999993-71.15Q 235.79999999999995-70.3  235.79999999999995-68.4L 235.79999999999995-68.4L 235.79999999999995-56.3Q 235.79999999999995-54.4  234.94999999999993-53.55Q 234.09999999999994-52.7  232.19999999999993-52.7L 232.19999999999993-52.7L 217.49999999999994-52.7L 217.49999999999994-3.6Q 217.49999999999994-1.7  216.64999999999995-0.85Q 215.79999999999995 0  213.89999999999995 0ZM 278.9 0L 278.9 0L 247.29999999999995 0Q 245.39999999999998 0  244.54999999999995-0.85Q 243.69999999999996-1.7  243.69999999999996-3.6L 243.69999999999996-3.6L 243.69999999999996-15.3Q 243.69999999999996-17.2  244.54999999999995-18.05Q 245.39999999999998-18.9  247.29999999999995-18.9L 247.29999999999995-18.9L 274.2-18.9Q 275.49999999999994-18.9  276.15-19.75Q 276.79999999999995-20.6  276.79999999999995-21.8L 276.79999999999995-21.8Q 276.79999999999995-23.5  276.15-24.3Q 275.49999999999994-25.1  274.2-25.2L 274.2-25.2L 259.2-27.3Q 252.19999999999996-28.3  247.94999999999996-31.9Q 243.69999999999996-35.5  243.69999999999996-43.9L 243.69999999999996-43.9L 243.69999999999996-54.4Q 243.69999999999996-62.9  249.19999999999996-67.45Q 254.69999999999996-72  264.4-72L 264.4-72L 292.4-72Q 294.29999999999995-72  295.15-71.15Q 295.99999999999994-70.3  295.99999999999994-68.4L 295.99999999999994-68.4L 295.99999999999994-56.5Q 295.99999999999994-54.6  295.15-53.75Q 294.29999999999995-52.9  292.4-52.9L 292.4-52.9L 269.09999999999997-52.9Q 267.79999999999995-52.9  267.09999999999997-52.05Q 266.4-51.2  266.4-49.9L 266.4-49.9Q 266.4-48.6  267.09999999999997-47.7Q 267.79999999999995-46.8  269.09999999999997-46.7L 269.09999999999997-46.7L 283.99999999999994-44.7Q 290.99999999999994-43.7  295.29999999999995-40.1Q 299.59999999999997-36.5  299.59999999999997-28.1L 299.59999999999997-28.1L 299.59999999999997-17.6Q 299.59999999999997-9.1  294.04999999999995-4.55Q 288.49999999999994 0  278.9 0Z">
</path>
<g id="_ehk67e99a_2" transform="matrix(1.61171, 0, 0, 1.61171, 174.609, 120.346)">
<svg id="_ehk67e99a_3" xmlns="http://www.w3.org/2000/svg" xmlns:xlink="http://www.w3.org/1999/xlink" version="1.1" x="0px" y="0px" viewBox="0 0 101 101" enable-background="new 0 0 101 101" width="101" height="101">
<path id="_ehk67e99a_4" d="M84.167,30.3H16.833V16.833h67.333L84.167,30.3L84.167,30.3z">
</path>
<path id="_ehk67e99a_5" d="M50.506,84.167H16.839V70.7h33.667V84.167z">
</path>
<path id="_ehk67e99a_6" d="M84.167,57.232H16.833V43.767h67.333L84.167,57.232L84.167,57.232z">
</path>
</svg>
</g>
</svg>